<svg width="36" height="38" viewBox="0 0 36 38" fill="none" xmlns="http://www.w3.org/2000/svg">
<path fill-rule="evenodd" clip-rule="evenodd" d="M35.8645 13.0666C34.9241 10.2529 33.5354 7.71028 31.7336 5.50804C29.9427 3.31948 27.7984 1.54644 25.358 0.23844C25.0836 0.09252 24.7547 0.14432 24.5292 0.37696L8.85388 16.3386L7.04385 18.182C6.94605 18.2691 6.86179 18.3854 6.81014 18.5266C6.80213 18.5473 6.79388 18.5751 6.7856 18.5997L2.57062 30.8096L0.771618 36.0262C0.668319 36.3213 0.728138 36.6525 0.918436 36.889C1.06228 37.0652 1.26353 37.1581 1.46994 37.1581C1.53797 37.1581 1.60863 37.1489 1.67662 37.125L6.49757 35.6008L17.8356 32.0137C17.9063 31.9921 17.977 31.9568 18.0422 31.9107C18.0775 31.8831 18.1128 31.853 18.1454 31.8228L19.9962 29.9376L35.6687 13.975C35.8943 13.7454 35.9705 13.3848 35.8645 13.0666ZM3.66859 32.273C3.69841 32.2949 3.73379 32.3079 3.76387 32.3254C4.08435 32.55 4.38336 32.7981 4.63062 33.1041C4.87791 33.4066 5.07363 33.7595 5.24484 34.1339C5.26397 34.1676 5.27195 34.2097 5.28554 34.2473L2.70652 35.0645L3.66859 32.273ZM17.2623 30.4585L6.76395 33.7799C6.73406 33.7077 6.68249 33.6535 6.64989 33.5828C6.4079 32.9958 6.11717 32.4435 5.73668 31.9767C5.35353 31.5111 4.88608 31.1411 4.38336 30.817C4.32084 30.7764 4.28278 30.7136 4.22025 30.6772L8.13911 19.3258L9.31308 18.1368L10.2616 19.2932L18.4307 29.2683L17.2623 30.4585ZM19.5368 28.1412L17.1644 25.2451L29.6248 12.5617C29.7851 12.3947 29.8665 12.1695 29.8665 11.9398C29.8665 11.7426 29.8041 11.5399 29.6709 11.3803C29.3937 11.04 28.9181 11.0178 28.6136 11.3274L16.1534 24.0117L15.6669 23.4144L13.7999 21.1302L26.2549 8.44732C26.4178 8.2792 26.4995 8.05512 26.4995 7.82484C26.4995 7.62768 26.4341 7.42552 26.3038 7.2648C26.0238 6.9262 25.5483 6.90516 25.2439 7.213L12.7862 19.8991L10.4191 17.0054L25.1597 1.9928C27.2387 3.18004 29.0784 4.737 30.6275 6.63788C32.1874 8.54024 33.4103 10.722 34.28 13.1276L19.5368 28.1412Z" fill="url(#paint0_linear_0_147)"/>
<path fill-rule="evenodd" clip-rule="evenodd" d="M35.8645 13.0666C34.9241 10.2529 33.5354 7.71028 31.7336 5.50804C29.9427 3.31948 27.7984 1.54644 25.358 0.23844C25.0836 0.09252 24.7547 0.14432 24.5292 0.37696L8.85388 16.3386L7.04385 18.182C6.94605 18.2691 6.86179 18.3854 6.81014 18.5266C6.80213 18.5473 6.79388 18.5751 6.7856 18.5997L2.57062 30.8096L0.771618 36.0262C0.668319 36.3213 0.728138 36.6525 0.918436 36.889C1.06228 37.0652 1.26353 37.1581 1.46994 37.1581C1.53797 37.1581 1.60863 37.1489 1.67662 37.125L6.49757 35.6008L17.8356 32.0137C17.9063 31.9921 17.977 31.9568 18.0422 31.9107C18.0775 31.8831 18.1128 31.853 18.1454 31.8228L19.9962 29.9376L35.6687 13.975C35.8943 13.7454 35.9705 13.3848 35.8645 13.0666ZM3.66859 32.273C3.69841 32.2949 3.73379 32.3079 3.76387 32.3254C4.08435 32.55 4.38336 32.7981 4.63062 33.1041C4.87791 33.4066 5.07363 33.7595 5.24484 34.1339C5.26397 34.1676 5.27195 34.2097 5.28554 34.2473L2.70652 35.0645L3.66859 32.273ZM17.2623 30.4585L6.76395 33.7799C6.73406 33.7077 6.68249 33.6535 6.64989 33.5828C6.4079 32.9958 6.11717 32.4435 5.73668 31.9767C5.35353 31.5111 4.88608 31.1411 4.38336 30.817C4.32084 30.7764 4.28278 30.7136 4.22025 30.6772L8.13911 19.3258L9.31308 18.1368L10.2616 19.2932L18.4307 29.2683L17.2623 30.4585ZM19.5368 28.1412L17.1644 25.2451L29.6248 12.5617C29.7851 12.3947 29.8665 12.1695 29.8665 11.9398C29.8665 11.7426 29.8041 11.5399 29.6709 11.3803C29.3937 11.04 28.9181 11.0178 28.6136 11.3274L16.1534 24.0117L15.6669 23.4144L13.7999 21.1302L26.2549 8.44732C26.4178 8.2792 26.4995 8.05512 26.4995 7.82484C26.4995 7.62768 26.4341 7.42552 26.3038 7.2648C26.0238 6.9262 25.5483 6.90516 25.2439 7.213L12.7862 19.8991L10.4191 17.0054L25.1597 1.9928C27.2387 3.18004 29.0784 4.737 30.6275 6.63788C32.1874 8.54024 33.4103 10.722 34.28 13.1276L19.5368 28.1412Z" fill="#FF3B4A"/>
<defs>
<linearGradient id="paint0_linear_0_147" x1="17.4787" y1="-17.4628" x2="-17.8025" y2="17.7691" gradientUnits="userSpaceOnUse">
<stop stop-color="white"/>
<stop offset="1" stop-color="white"/>
</linearGradient>
</defs>
</svg>
